<svg width="365" height="251" viewBox="0 0 365 251" fill="none" xmlns="http://www.w3.org/2000/svg">
<path d="M205.334 132C205.334 179.496 133.83 244 86.3339 244C38.8374 244 0.333862 205.496 0.333862 158C0.333862 110.504 38.8374 72 86.3339 72C133.83 72 205.334 84.5035 205.334 132Z" fill="#17307A"/>
<path d="M362.834 119C362.834 184.722 383.834 243 266.334 250.5C194.261 250.5 89.3339 153.722 89.3339 88.0001C89.3339 22.2782 160.261 0 232.334 0C304.407 0 362.834 53.2781 362.834 119Z" fill="#7A9AF9"/>
<path d="M155.138 178.461L172.739 160.651H190.341L202.309 148.541C214.544 152.853 227.863 152.836 240.086 148.492C252.31 144.148 262.714 135.734 269.596 124.627C276.478 113.521 279.43 100.38 277.969 87.3542C276.508 74.3289 270.72 62.1911 261.554 52.9275C252.387 43.6639 240.384 37.8231 227.509 36.3612C214.634 34.8992 201.65 37.9026 190.682 44.8799C179.714 51.8571 171.412 62.3949 167.134 74.7686C162.856 87.1422 162.856 100.619 167.133 112.993L102.334 178.461V214.08H137.537L155.138 196.27V178.461Z" fill="white" stroke="white" stroke-width="2" stroke-linecap="round" stroke-linejoin="round"/>
<path d="M234.344 89.4126C239.204 89.4126 243.145 85.4258 243.145 80.5078C243.145 75.5898 239.204 71.603 234.344 71.603C229.483 71.603 225.543 75.5898 225.543 80.5078C225.543 85.4258 229.483 89.4126 234.344 89.4126Z" fill="#7A9AF9" stroke="white" stroke-width="2" stroke-linecap="round" stroke-linejoin="round"/>
</svg>
